<svg width="21" height="21" viewBox="0 0 21 21" fill="none" xmlns="http://www.w3.org/2000/svg">
<path d="M6.51496 20.5C6.00837 20.5 5.5765 20.323 5.21936 19.969C4.86222 19.615 4.68365 19.1895 4.68365 18.6924C4.68365 18.1954 4.86402 17.7716 5.22477 17.4212C5.58553 17.0707 6.0192 16.8955 6.52578 16.8955C7.03238 16.8955 7.46424 17.0725 7.82138 17.4265C8.17852 17.7805 8.35709 18.206 8.35709 18.7031C8.35709 19.2001 8.17672 19.6239 7.81598 19.9743C7.45521 20.3248 7.02154 20.5 6.51496 20.5ZM16.719 20.5C16.2124 20.5 15.7805 20.323 15.4234 19.969C15.0662 19.615 14.8877 19.1895 14.8877 18.6924C14.8877 18.1954 15.068 17.7716 15.4288 17.4212C15.7895 17.0707 16.2232 16.8955 16.7298 16.8955C17.2364 16.8955 17.6683 17.0725 18.0254 17.4265C18.3825 17.7805 18.5611 18.206 18.5611 18.7031C18.5611 19.2001 18.3807 19.6239 18.02 19.9743C17.6592 20.3248 17.2256 20.5 16.719 20.5ZM5.19385 3.97935L7.99995 9.68648H15.3468L18.5356 3.97935H5.19385ZM4.42855 2.47747H19.4559C19.8464 2.47747 20.1435 2.65269 20.3473 3.00313C20.5511 3.35357 20.5509 3.70401 20.3468 4.05444L16.903 10.137C16.7159 10.4541 16.473 10.7086 16.1744 10.9005C15.8758 11.0924 15.5489 11.1884 15.1938 11.1884H7.46424L6.03568 13.7916H18.5611V15.2935H6.26527C5.55099 15.2935 5.03654 15.0599 4.72191 14.5926C4.40729 14.1254 4.41154 13.5997 4.73467 13.0156L6.36731 10.062L2.48978 2.00188H0.5V0.5H3.48468L4.42855 2.47747Z" fill="white"/>
</svg>
