<svg width="253" height="27" viewBox="0 0 253 27" fill="none" xmlns="http://www.w3.org/2000/svg">
<path d="M18.104 10.768C18.104 12.0693 17.8053 13.264 17.208 14.352C16.6107 15.4187 15.6933 16.2827 14.456 16.944C13.2187 17.6053 11.6827 17.936 9.84799 17.936H6.45599V26H0.983994V3.53601H9.84799C11.64 3.53601 13.1547 3.84535 14.392 4.46401C15.6293 5.08268 16.5573 5.93601 17.176 7.02401C17.7947 8.11201 18.104 9.36001 18.104 10.768ZM9.43199 13.584C10.4773 13.584 11.256 13.3387 11.768 12.848C12.28 12.3573 12.536 11.664 12.536 10.768C12.536 9.87201 12.28 9.17868 11.768 8.68801C11.256 8.19735 10.4773 7.95201 9.43199 7.95201H6.45599V13.584H9.43199Z" fill="white"/>
<path d="M26.4247 11.12C27.0647 10.1387 27.8647 9.37068 28.8247 8.81601C29.7847 8.24001 30.8514 7.95201 32.0247 7.95201V13.744H30.5207C29.1554 13.744 28.1314 14.0427 27.4487 14.64C26.7661 15.216 26.4247 16.24 26.4247 17.712V26H20.9527V8.14401H26.4247V11.12Z" fill="white"/>
<path d="M51.4722 16.784C51.4722 17.296 51.4402 17.8293 51.3762 18.384H38.9922C39.0776 19.4933 39.4296 20.3467 40.0482 20.944C40.6882 21.52 41.4669 21.808 42.3842 21.808C43.7496 21.808 44.6989 21.232 45.2322 20.08H51.0562C50.7576 21.2533 50.2136 22.3093 49.4242 23.248C48.6562 24.1867 47.6856 24.9227 46.5122 25.456C45.3389 25.9893 44.0269 26.256 42.5762 26.256C40.8269 26.256 39.2696 25.8827 37.9042 25.136C36.5389 24.3893 35.4722 23.3227 34.7042 21.936C33.9362 20.5493 33.5522 18.928 33.5522 17.072C33.5522 15.216 33.9256 13.5947 34.6722 12.208C35.4402 10.8213 36.5069 9.75468 37.8722 9.00801C39.2376 8.26135 40.8056 7.88801 42.5762 7.88801C44.3042 7.88801 45.8402 8.25068 47.1842 8.97601C48.5282 9.70135 49.5736 10.736 50.3202 12.08C51.0882 13.424 51.4722 14.992 51.4722 16.784ZM45.8722 15.344C45.8722 14.4053 45.5522 13.6587 44.9122 13.104C44.2722 12.5493 43.4722 12.272 42.5122 12.272C41.5949 12.272 40.8162 12.5387 40.1762 13.072C39.5576 13.6053 39.1736 14.3627 39.0242 15.344H45.8722Z" fill="white"/>
<path d="M77.143 7.95201C79.3617 7.95201 81.1217 8.62401 82.423 9.96801C83.7457 11.312 84.407 13.1787 84.407 15.568V26H78.967V16.304C78.967 15.152 78.6577 14.2667 78.039 13.648C77.4417 13.008 76.6097 12.688 75.543 12.688C74.4763 12.688 73.6337 13.008 73.015 13.648C72.4177 14.2667 72.119 15.152 72.119 16.304V26H66.679V16.304C66.679 15.152 66.3697 14.2667 65.751 13.648C65.1537 13.008 64.3217 12.688 63.255 12.688C62.1883 12.688 61.3457 13.008 60.727 13.648C60.1297 14.2667 59.831 15.152 59.831 16.304V26H54.359V8.14401H59.831V10.384C60.3857 9.63735 61.111 9.05068 62.007 8.62401C62.903 8.17601 63.9163 7.95201 65.047 7.95201C66.391 7.95201 67.5857 8.24001 68.631 8.81601C69.6977 9.39201 70.5297 10.2133 71.127 11.28C71.7457 10.2987 72.5883 9.49868 73.655 8.88001C74.7217 8.26135 75.8843 7.95201 77.143 7.95201Z" fill="white"/>
<path d="M90.986 6.28801C90.026 6.28801 89.2367 6.01068 88.618 5.45601C88.0207 4.88001 87.722 4.17601 87.722 3.34401C87.722 2.49068 88.0207 1.78668 88.618 1.23201C89.2367 0.656012 90.026 0.368011 90.986 0.368011C91.9247 0.368011 92.6927 0.656012 93.29 1.23201C93.9087 1.78668 94.218 2.49068 94.218 3.34401C94.218 4.17601 93.9087 4.88001 93.29 5.45601C92.6927 6.01068 91.9247 6.28801 90.986 6.28801ZM93.706 8.14401V26H88.234V8.14401H93.706Z" fill="white"/>
<path d="M115.303 8.14401V26H109.831V23.568C109.277 24.3573 108.519 24.9973 107.559 25.488C106.621 25.9573 105.575 26.192 104.423 26.192C103.058 26.192 101.853 25.8933 100.807 25.296C99.7622 24.6773 98.9515 23.792 98.3755 22.64C97.7995 21.488 97.5115 20.1333 97.5115 18.576V8.14401H102.951V17.84C102.951 19.0347 103.261 19.9627 103.879 20.624C104.498 21.2853 105.33 21.616 106.375 21.616C107.442 21.616 108.285 21.2853 108.903 20.624C109.522 19.9627 109.831 19.0347 109.831 17.84V8.14401H115.303Z" fill="white"/>
<path d="M142.018 7.95201C144.237 7.95201 145.997 8.62401 147.298 9.96801C148.621 11.312 149.282 13.1787 149.282 15.568V26H143.842V16.304C143.842 15.152 143.533 14.2667 142.914 13.648C142.317 13.008 141.485 12.688 140.418 12.688C139.351 12.688 138.509 13.008 137.89 13.648C137.293 14.2667 136.994 15.152 136.994 16.304V26H131.554V16.304C131.554 15.152 131.245 14.2667 130.626 13.648C130.029 13.008 129.197 12.688 128.13 12.688C127.063 12.688 126.221 13.008 125.602 13.648C125.005 14.2667 124.706 15.152 124.706 16.304V26H119.234V8.14401H124.706V10.384C125.261 9.63735 125.986 9.05068 126.882 8.62401C127.778 8.17601 128.791 7.95201 129.922 7.95201C131.266 7.95201 132.461 8.24001 133.506 8.81601C134.573 9.39201 135.405 10.2133 136.002 11.28C136.621 10.2987 137.463 9.49868 138.53 8.88001C139.597 8.26135 140.759 7.95201 142.018 7.95201Z" fill="white"/>
<path d="M168.018 26.224C166.376 26.224 164.904 25.9573 163.602 25.424C162.301 24.8907 161.256 24.1013 160.466 23.056C159.698 22.0107 159.293 20.752 159.25 19.28H165.074C165.16 20.112 165.448 20.752 165.938 21.2C166.429 21.6267 167.069 21.84 167.858 21.84C168.669 21.84 169.309 21.6587 169.778 21.296C170.248 20.912 170.482 20.3893 170.482 19.728C170.482 19.1733 170.29 18.7147 169.906 18.352C169.544 17.9893 169.085 17.6907 168.53 17.456C167.997 17.2213 167.229 16.9547 166.226 16.656C164.776 16.208 163.592 15.76 162.674 15.312C161.757 14.864 160.968 14.2027 160.306 13.328C159.645 12.4533 159.314 11.312 159.314 9.90401C159.314 7.81335 160.072 6.18135 161.586 5.00801C163.101 3.81335 165.074 3.21601 167.506 3.21601C169.981 3.21601 171.976 3.81335 173.49 5.00801C175.005 6.18135 175.816 7.82401 175.922 9.93601H170.002C169.96 9.21068 169.693 8.64535 169.202 8.24001C168.712 7.81335 168.082 7.60001 167.314 7.60001C166.653 7.60001 166.12 7.78135 165.714 8.14401C165.309 8.48534 165.106 8.98668 165.106 9.64801C165.106 10.3733 165.448 10.9387 166.13 11.344C166.813 11.7493 167.88 12.1867 169.33 12.656C170.781 13.1467 171.954 13.616 172.85 14.064C173.768 14.512 174.557 15.1627 175.218 16.016C175.88 16.8693 176.21 17.968 176.21 19.312C176.21 20.592 175.88 21.7547 175.218 22.8C174.578 23.8453 173.64 24.6773 172.402 25.296C171.165 25.9147 169.704 26.224 168.018 26.224Z" fill="white"/>
<path d="M189.53 21.36V26H186.746C184.762 26 183.215 25.52 182.106 24.56C180.996 23.5787 180.442 21.9893 180.442 19.792V12.688H178.266V8.14401H180.442V3.79201H185.914V8.14401H189.498V12.688H185.914V19.856C185.914 20.3893 186.042 20.7733 186.298 21.008C186.554 21.2427 186.98 21.36 187.578 21.36H189.53Z" fill="white"/>
<path d="M200.706 26.256C198.956 26.256 197.378 25.8827 195.97 25.136C194.583 24.3893 193.484 23.3227 192.674 21.936C191.884 20.5493 191.49 18.928 191.49 17.072C191.49 15.2373 191.895 13.6267 192.706 12.24C193.516 10.832 194.626 9.75468 196.034 9.00801C197.442 8.26135 199.02 7.88801 200.77 7.88801C202.519 7.88801 204.098 8.26135 205.506 9.00801C206.914 9.75468 208.023 10.832 208.834 12.24C209.644 13.6267 210.05 15.2373 210.05 17.072C210.05 18.9067 209.634 20.528 208.802 21.936C207.991 23.3227 206.871 24.3893 205.442 25.136C204.034 25.8827 202.455 26.256 200.706 26.256ZM200.706 21.52C201.751 21.52 202.636 21.136 203.362 20.368C204.108 19.6 204.482 18.5013 204.482 17.072C204.482 15.6427 204.119 14.544 203.394 13.776C202.69 13.008 201.815 12.624 200.77 12.624C199.703 12.624 198.818 13.008 198.114 13.776C197.41 14.5227 197.058 15.6213 197.058 17.072C197.058 18.5013 197.399 19.6 198.082 20.368C198.786 21.136 199.66 21.52 200.706 21.52Z" fill="white"/>
<path d="M218.425 11.12C219.065 10.1387 219.865 9.37068 220.825 8.81601C221.785 8.24001 222.851 7.95201 224.025 7.95201V13.744H222.521C221.155 13.744 220.131 14.0427 219.449 14.64C218.766 15.216 218.425 16.24 218.425 17.712V26H212.953V8.14401H218.425V11.12Z" fill="white"/>
<path d="M243.472 16.784C243.472 17.296 243.44 17.8293 243.376 18.384H230.992C231.078 19.4933 231.43 20.3467 232.048 20.944C232.688 21.52 233.467 21.808 234.384 21.808C235.75 21.808 236.699 21.232 237.232 20.08H243.056C242.758 21.2533 242.214 22.3093 241.424 23.248C240.656 24.1867 239.686 24.9227 238.512 25.456C237.339 25.9893 236.027 26.256 234.576 26.256C232.827 26.256 231.27 25.8827 229.904 25.136C228.539 24.3893 227.472 23.3227 226.704 21.936C225.936 20.5493 225.552 18.928 225.552 17.072C225.552 15.216 225.926 13.5947 226.672 12.208C227.44 10.8213 228.507 9.75468 229.872 9.00801C231.238 8.26135 232.806 7.88801 234.576 7.88801C236.304 7.88801 237.84 8.25068 239.184 8.97601C240.528 9.70135 241.574 10.736 242.32 12.08C243.088 13.424 243.472 14.992 243.472 16.784ZM237.872 15.344C237.872 14.4053 237.552 13.6587 236.912 13.104C236.272 12.5493 235.472 12.272 234.512 12.272C233.595 12.272 232.816 12.5387 232.176 13.072C231.558 13.6053 231.174 14.3627 231.024 15.344H237.872Z" fill="white"/>
<path d="M248.919 26.256C247.959 26.256 247.17 25.9787 246.551 25.424C245.954 24.848 245.655 24.144 245.655 23.312C245.655 22.4587 245.954 21.744 246.551 21.168C247.17 20.592 247.959 20.304 248.919 20.304C249.858 20.304 250.626 20.592 251.223 21.168C251.842 21.744 252.151 22.4587 252.151 23.312C252.151 24.144 251.842 24.848 251.223 25.424C250.626 25.9787 249.858 26.256 248.919 26.256Z" fill="#E93A7A"/>
</svg>
